<svg width="72" height="72" viewBox="0 0 72 72" fill="none" xmlns="http://www.w3.org/2000/svg">
<g clip-path="url(#clip0_508_5784)">
<path d="M27 12V66M18 12H51C52.5913 12 54.1174 12.6321 55.2426 13.7574C56.3679 14.8826 57 16.4087 57 18V54C57 55.5913 56.3679 57.1174 55.2426 58.2426C54.1174 59.3679 52.5913 60 51 60H18C17.2044 60 16.4413 59.6839 15.8787 59.1213C15.3161 58.5587 15 57.7956 15 57V15C15 14.2044 15.3161 13.4413 15.8787 12.8787C16.4413 12.3161 17.2044 12 18 12V12Z" stroke="#3F3A64" stroke-width="2.75" stroke-linecap="round" stroke-linejoin="round"/>
<path d="M39 24H45" stroke="#20AD96" stroke-width="2.75" stroke-linecap="round" stroke-linejoin="round"/>
<path d="M39 36H45" stroke="#20AD96" stroke-width="2.75" stroke-linecap="round" stroke-linejoin="round"/>
</g>
<defs>
<clipPath id="clip0_508_5784">
<rect width="72" height="72" fill="white"/>
</clipPath>
</defs>
</svg>
