<svg width="72" height="72" viewBox="0 0 72 72" fill="none" xmlns="http://www.w3.org/2000/svg">
<g clip-path="url(#clip0_508_5794)">
<path d="M62.25 45.5L52.5 35.75H29.75C28.888 35.75 28.0614 35.4076 27.4519 34.7981C26.8424 34.1886 26.5 33.362 26.5 32.5V13C26.5 12.138 26.8424 11.3114 27.4519 10.7019C28.0614 10.0924 28.888 9.75 29.75 9.75H59C59.862 9.75 60.6886 10.0924 61.2981 10.7019C61.9076 11.3114 62.25 12.138 62.25 13V45.5Z" stroke="#3F3A64" stroke-width="2.75" stroke-linecap="round" stroke-linejoin="round"/>
<path d="M39.5 48.75V55.25C39.5 56.112 39.1576 56.9386 38.5481 57.5481C37.9386 58.1576 37.112 58.5 36.25 58.5H13.5L3.75 68.25V35.75C3.75 34.888 4.09241 34.0614 4.7019 33.4519C5.3114 32.8424 6.13805 32.5 7 32.5H13.5" stroke="#20AD96" stroke-width="2.75" stroke-linecap="round" stroke-linejoin="round"/>
</g>
<defs>
<clipPath id="clip0_508_5794">
<rect width="78" height="78" fill="white" transform="translate(-6)"/>
</clipPath>
</defs>
</svg>
