<svg width="56" height="56" viewBox="0 0 56 56" fill="none" xmlns="http://www.w3.org/2000/svg">
<g clip-path="url(#clip0_508_5823)">
<path d="M39.5497 16.4507C45.9283 22.8292 45.9283 33.1709 39.5497 39.5495C33.1712 45.928 22.8295 45.928 16.4509 39.5495C10.0724 33.1709 10.0724 22.8292 16.4509 16.4507C22.8295 10.0721 33.1712 10.0721 39.5497 16.4507Z" stroke="#20AD96" stroke-width="3" stroke-linecap="round" stroke-linejoin="round"/>
<path d="M31.2995 24.7001C33.122 26.5225 33.122 29.4773 31.2995 31.2998C29.4771 33.1222 26.5223 33.1222 24.6998 31.2998C22.8774 29.4773 22.8774 26.5225 24.6998 24.7001C26.5223 22.8776 29.4771 22.8776 31.2995 24.7001" stroke="#333461" stroke-width="3" stroke-linecap="round" stroke-linejoin="round"/>
<path d="M28 49.0001V39.6667" stroke="#20AD96" stroke-width="3" stroke-linecap="round" stroke-linejoin="round"/>
<path d="M28 7V16.3333" stroke="#20AD96" stroke-width="3" stroke-linecap="round" stroke-linejoin="round"/>
<path d="M16.3333 28H7" stroke="#20AD96" stroke-width="3" stroke-linecap="round" stroke-linejoin="round"/>
<path d="M49.0003 28H39.667" stroke="#20AD96" stroke-width="3" stroke-linecap="round" stroke-linejoin="round"/>
</g>
<defs>
<clipPath id="clip0_508_5823">
<rect width="56" height="56" fill="white"/>
</clipPath>
</defs>
</svg>
