<svg width="149" height="28" viewBox="0 0 149 28" fill="none" xmlns="http://www.w3.org/2000/svg">
<path d="M16.2618 3.01221C17.8963 3.01221 19.4076 3.88149 20.2295 5.29444L24.1002 11.9498C24.9302 13.3764 24.9302 15.1386 24.1002 16.5652L20.2295 23.2206C19.4076 24.6335 17.8963 25.5028 16.2618 25.5028H8.46089C6.82633 25.5028 5.3151 24.6335 4.49329 23.2206L0.622308 16.5652C-0.207437 15.1386 -0.207435 13.3764 0.62231 11.9498L4.49329 5.29444C5.3151 3.88149 6.82633 3.01221 8.46089 3.01221H16.2618Z" fill="#20AD96"/>
<path d="M7.83154 19.4784L10.3508 16.9592H16.229C16.4517 16.9592 16.6653 16.8707 16.8228 16.7132C16.9803 16.5557 17.0687 16.3421 17.0687 16.1194V11.081C17.0687 10.8582 16.9803 10.6447 16.8228 10.4872C16.6653 10.3297 16.4517 10.2412 16.229 10.2412H8.67128C8.44857 10.2412 8.23499 10.3297 8.07749 10.4872C7.92002 10.6447 7.83154 10.8582 7.83154 11.081V19.4784Z" stroke="white" stroke-width="1.60647" stroke-linecap="round" stroke-linejoin="round"/>
<path d="M36.4159 19.4783H34.0648V8.02785H36.4159V12.8141H41.3702V8.02785H43.7213V19.4783H41.3702V14.8676H36.4159V19.4783ZM51.7753 19.4783H49.8671L49.7526 18.5699C49.4727 18.9058 49.1265 19.1679 48.7144 19.3562C48.3022 19.5394 47.8491 19.631 47.3555 19.631C46.8212 19.631 46.3453 19.5292 45.928 19.3256C45.5107 19.117 45.1826 18.832 44.9432 18.4707C44.7041 18.1042 44.5846 17.6895 44.5846 17.2264C44.5846 16.7378 44.7143 16.3078 44.9739 15.9363C45.2334 15.5648 45.5896 15.2747 46.0427 15.0661C46.5005 14.8523 47.0196 14.7454 47.5997 14.7454C47.9407 14.7454 48.2817 14.7836 48.6226 14.8599C48.9688 14.9363 49.2893 15.0432 49.5845 15.1806V14.9821C49.5845 14.6767 49.498 14.4146 49.3251 14.1958C49.157 13.9719 48.9231 13.7989 48.6226 13.6767C48.3277 13.5546 47.9967 13.4935 47.6304 13.4935C47.2792 13.4935 46.9306 13.5495 46.5846 13.6615C46.2437 13.7734 45.928 13.9414 45.638 14.1653L45.0426 12.4935C45.5565 12.2289 46.0756 12.0304 46.5999 11.8981C47.129 11.7607 47.6405 11.692 48.1343 11.692C48.8773 11.692 49.5209 11.8396 50.0655 12.1347C50.61 12.4248 51.0299 12.837 51.3251 13.3714C51.6253 13.9007 51.7753 14.5292 51.7753 15.2569V19.4783ZM47.8365 17.9439C48.1264 17.9439 48.404 17.8803 48.6686 17.7531C48.9331 17.6259 49.147 17.4528 49.3098 17.234C49.4777 17.0152 49.5668 16.7734 49.5769 16.5088V16.4554C49.353 16.3027 49.1036 16.1857 48.8289 16.1042C48.5592 16.0177 48.2843 15.9745 48.0043 15.9745C47.5871 15.9745 47.2461 16.0661 46.9814 16.2493C46.7168 16.4325 46.5846 16.6691 46.5846 16.9592C46.5846 17.1475 46.6381 17.318 46.7449 17.4707C46.8567 17.6182 47.0069 17.7353 47.1953 17.8218C47.3835 17.9032 47.5973 17.9439 47.8365 17.9439ZM55.0586 23.2951H52.8601V11.8447H54.7836L54.8981 12.8828C55.2238 12.5113 55.6132 12.2213 56.0662 12.0126C56.5241 11.7989 57.0229 11.692 57.5622 11.692C58.2647 11.692 58.888 11.865 59.4326 12.2111C59.9772 12.552 60.4071 13.0228 60.7226 13.6233C61.0382 14.2187 61.1959 14.8981 61.1959 15.6615C61.1959 16.4198 61.0382 17.0992 60.7226 17.6997C60.4071 18.3002 59.9772 18.7735 59.4326 19.1195C58.888 19.4605 58.2647 19.631 57.5622 19.631C57.0636 19.631 56.6006 19.5419 56.173 19.3638C55.7505 19.1806 55.379 18.9287 55.0586 18.6081V23.2951ZM57.005 17.6615C57.3867 17.6615 57.7227 17.5775 58.0126 17.4096C58.3028 17.2366 58.5293 16.9999 58.6922 16.6996C58.8601 16.3943 58.944 16.0482 58.944 15.6615C58.944 15.2696 58.8601 14.9236 58.6922 14.6233C58.5293 14.3231 58.3028 14.0864 58.0126 13.9134C57.7227 13.7404 57.3893 13.6538 57.0126 13.6538C56.6564 13.6538 56.3359 13.7327 56.051 13.8905C55.7658 14.0432 55.5343 14.2569 55.3562 14.5317C55.1833 14.8065 55.0839 15.122 55.0586 15.4783V15.86C55.0839 16.206 55.1833 16.5165 55.3562 16.7913C55.5292 17.061 55.7582 17.2747 56.0433 17.4325C56.3283 17.5852 56.6488 17.6615 57.005 17.6615ZM64.1584 23.2951H61.9599V11.8447H63.8835L63.9982 12.8828C64.3239 12.5113 64.713 12.2213 65.1661 12.0126C65.6241 11.7989 66.1227 11.692 66.6623 11.692C67.3645 11.692 67.988 11.865 68.5324 12.2111C69.077 12.552 69.5069 13.0228 69.8226 13.6233C70.1381 14.2187 70.2959 14.8981 70.2959 15.6615C70.2959 16.4198 70.1381 17.0992 69.8226 17.6997C69.5069 18.3002 69.077 18.7735 68.5324 19.1195C67.988 19.4605 67.3645 19.631 66.6623 19.631C66.1635 19.631 65.7004 19.5419 65.2729 19.3638C64.8506 19.1806 64.4791 18.9287 64.1584 18.6081V23.2951ZM66.105 17.6615C66.4866 17.6615 66.8225 17.5775 67.1127 17.4096C67.4027 17.2366 67.6292 16.9999 67.792 16.6996C67.9599 16.3943 68.0438 16.0482 68.0438 15.6615C68.0438 15.2696 67.9599 14.9236 67.792 14.6233C67.6292 14.3231 67.4027 14.0864 67.1127 13.9134C66.8225 13.7404 66.4892 13.6538 66.1127 13.6538C65.7564 13.6538 65.4357 13.7327 65.1508 13.8905C64.8658 14.0432 64.6343 14.2569 64.4562 14.5317C64.2831 14.8065 64.1839 15.122 64.1584 15.4783V15.86C64.1839 16.206 64.2831 16.5165 64.4562 16.7913C64.6291 17.061 64.8582 17.2747 65.1432 17.4325C65.4281 17.5852 65.7488 17.6615 66.105 17.6615ZM74.8079 23.2951H72.4721L74.0599 19.4707L70.2047 11.8447H72.6781L75.098 16.9745L77.2202 11.8447H79.5484L74.8079 23.2951ZM92.9086 18.0432C92.3742 18.5623 91.7405 18.9694 91.0077 19.2646C90.275 19.5597 89.4784 19.7073 88.6185 19.7073C87.7482 19.7073 86.9466 19.5597 86.2138 19.2646C85.4811 18.9643 84.8423 18.547 84.2977 18.0126C83.7583 17.4732 83.3384 16.8421 83.0382 16.1195C82.738 15.3968 82.5878 14.608 82.5878 13.7531C82.5878 12.8981 82.738 12.1093 83.0382 11.3866C83.3384 10.6589 83.7583 10.0279 84.2977 9.49351C84.8423 8.95914 85.4811 8.54439 86.2138 8.24922C86.9466 7.94897 87.7482 7.79883 88.6185 7.79883C89.4733 7.79883 90.2647 7.94642 90.9925 8.24159C91.7252 8.53676 92.359 8.94643 92.8933 9.4706L91.2521 11.1195C90.9314 10.7276 90.5394 10.4197 90.0764 10.1958C89.6183 9.9668 89.1197 9.85228 88.5801 9.85228C88.0663 9.85228 87.5904 9.95152 87.1528 10.15C86.7203 10.3434 86.3411 10.6182 86.0154 10.9744C85.6897 11.3256 85.4377 11.7378 85.2596 12.2111C85.0815 12.6844 84.9925 13.1958 84.9925 13.7454C84.9925 14.3052 85.0815 14.8218 85.2596 15.2951C85.4377 15.7684 85.6897 16.1831 86.0154 16.5393C86.3411 16.8905 86.7203 17.1653 87.1528 17.3638C87.5904 17.5572 88.0663 17.6539 88.5801 17.6539C89.1197 17.6539 89.6183 17.5419 90.0764 17.318C90.5344 17.089 90.9238 16.7785 91.2443 16.3867L92.9086 18.0432ZM97.2832 19.631C96.4994 19.631 95.7972 19.4605 95.1763 19.1195C94.5554 18.7735 94.0668 18.3027 93.7106 17.7073C93.3596 17.1068 93.1839 16.4248 93.1839 15.6615C93.1839 14.9032 93.3596 14.2264 93.7106 13.6309C94.0668 13.0304 94.5554 12.5571 95.1763 12.2111C95.7972 11.865 96.4994 11.692 97.2832 11.692C98.0669 11.692 98.7641 11.865 99.3748 12.2111C99.9905 12.5571 100.474 13.0304 100.825 13.6309C101.181 14.2264 101.36 14.9032 101.36 15.6615C101.36 16.4248 101.181 17.1068 100.825 17.7073C100.474 18.3027 99.9905 18.7735 99.3748 19.1195C98.7641 19.4605 98.0669 19.631 97.2832 19.631ZM97.2756 17.6691C97.6268 17.6691 97.9396 17.5826 98.2145 17.4096C98.4945 17.2315 98.7132 16.9923 98.871 16.692C99.0338 16.3867 99.1152 16.0381 99.1152 15.6462C99.1152 15.2696 99.0338 14.9312 98.871 14.6309C98.7132 14.3307 98.4945 14.094 98.2145 13.921C97.9396 13.7429 97.6268 13.6538 97.2756 13.6538C96.9193 13.6538 96.6012 13.7429 96.3213 13.921C96.0466 14.094 95.8277 14.3307 95.6649 14.6309C95.507 14.9312 95.4281 15.2696 95.4281 15.6462C95.4281 16.0381 95.507 16.3867 95.6649 16.692C95.8277 16.9923 96.0466 17.2315 96.3213 17.4096C96.6012 17.5826 96.9193 17.6691 97.2756 17.6691ZM108.94 19.4783H107.032L106.917 18.5699C106.637 18.9058 106.291 19.1679 105.879 19.3562C105.467 19.5394 105.014 19.631 104.521 19.631C103.986 19.631 103.51 19.5292 103.093 19.3256C102.676 19.117 102.347 18.832 102.108 18.4707C101.869 18.1042 101.749 17.6895 101.749 17.2264C101.749 16.7378 101.879 16.3078 102.139 15.9363C102.398 15.5648 102.755 15.2747 103.207 15.0661C103.665 14.8523 104.185 14.7454 104.765 14.7454C105.106 14.7454 105.447 14.7836 105.788 14.8599C106.134 14.9363 106.454 15.0432 106.75 15.1806V14.9821C106.75 14.6767 106.663 14.4146 106.49 14.1958C106.322 13.9719 106.088 13.7989 105.788 13.6767C105.492 13.5546 105.162 13.4935 104.795 13.4935C104.444 13.4935 104.096 13.5495 103.749 13.6615C103.408 13.7734 103.093 13.9414 102.803 14.1653L102.207 12.4935C102.721 12.2289 103.241 12.0304 103.765 11.8981C104.294 11.7607 104.805 11.692 105.299 11.692C106.042 11.692 106.686 11.8396 107.23 12.1347C107.775 12.4248 108.195 12.837 108.49 13.3714C108.79 13.9007 108.94 14.5292 108.94 15.2569V19.4783ZM105.001 17.9439C105.291 17.9439 105.569 17.8803 105.833 17.7531C106.098 17.6259 106.312 17.4528 106.475 17.234C106.643 17.0152 106.732 16.7734 106.742 16.5088V16.4554C106.518 16.3027 106.269 16.1857 105.994 16.1042C105.724 16.0177 105.449 15.9745 105.169 15.9745C104.752 15.9745 104.411 16.0661 104.146 16.2493C103.882 16.4325 103.749 16.6691 103.749 16.9592C103.749 17.1475 103.803 17.318 103.91 17.4707C104.022 17.6182 104.172 17.7353 104.36 17.8218C104.548 17.9032 104.762 17.9439 105.001 17.9439ZM116.788 18.2646C116.417 18.692 115.961 19.0279 115.422 19.2722C114.882 19.5114 114.29 19.631 113.643 19.631C112.86 19.631 112.157 19.4605 111.536 19.1195C110.921 18.7735 110.435 18.3002 110.078 17.6997C109.727 17.0992 109.552 16.4198 109.552 15.6615C109.552 14.8981 109.727 14.2187 110.078 13.6233C110.435 13.0228 110.921 12.552 111.536 12.2111C112.157 11.865 112.86 11.692 113.643 11.692C114.284 11.692 114.875 11.8116 115.414 12.0508C115.954 12.29 116.409 12.6207 116.781 13.0431L115.491 14.3943C115.292 14.1653 115.04 13.9872 114.735 13.8599C114.435 13.7276 114.119 13.6615 113.788 13.6615C113.407 13.6615 113.066 13.748 112.765 13.921C112.465 14.089 112.229 14.3231 112.055 14.6233C111.882 14.9185 111.796 15.2595 111.796 15.6462C111.796 16.0381 111.882 16.3867 112.055 16.692C112.229 16.9974 112.465 17.2366 112.765 17.4096C113.066 17.5775 113.407 17.6615 113.788 17.6615C114.119 17.6615 114.437 17.5979 114.742 17.4707C115.048 17.3383 115.297 17.1577 115.491 16.9287L116.788 18.2646ZM117.506 19.4783V8.02785H119.697V12.7454C120.247 12.0431 121.036 11.692 122.064 11.692C123.026 11.692 123.776 11.9897 124.316 12.5851C124.855 13.1755 125.125 14.0024 125.125 15.0661V19.4783H122.934V15.6462C122.934 15.0101 122.794 14.519 122.514 14.1729C122.234 13.8269 121.842 13.6538 121.339 13.6538C120.825 13.6538 120.423 13.8294 120.132 14.1805C119.842 14.5317 119.697 15.0202 119.697 15.6462V19.4783H117.506ZM127.316 10.0202C127.026 10.0202 126.782 9.91844 126.584 9.71488C126.385 9.51132 126.286 9.26449 126.286 8.97442C126.286 8.68433 126.385 8.44007 126.584 8.24159C126.782 8.03803 127.026 7.93624 127.316 7.93624C127.612 7.93624 127.858 8.03803 128.057 8.24159C128.26 8.44007 128.362 8.68433 128.362 8.97442C128.362 9.26449 128.26 9.51132 128.057 9.71488C127.858 9.91844 127.612 10.0202 127.316 10.0202ZM128.416 19.4783H126.225V11.8447H128.416V19.4783ZM137.294 19.4783H135.103V15.5699C135.103 14.9745 134.961 14.5088 134.676 14.1729C134.396 13.832 134.012 13.6615 133.523 13.6615C133.014 13.6615 132.61 13.8396 132.309 14.1958C132.014 14.547 131.867 15.0253 131.867 15.6309V19.4783H129.676V11.8447H131.447L131.523 13.066C131.798 12.6182 132.157 12.2772 132.599 12.0431C133.042 11.809 133.564 11.692 134.164 11.692C135.136 11.692 135.9 11.9923 136.455 12.5928C137.014 13.1882 137.294 14.0126 137.294 15.0661V19.4783ZM141.501 19.5699C140.814 19.5699 140.198 19.3994 139.654 19.0584C139.109 18.7124 138.681 18.2442 138.371 17.6539C138.061 17.0584 137.905 16.3841 137.905 15.6309C137.905 14.8727 138.061 14.1984 138.371 13.608C138.681 13.0177 139.109 12.552 139.654 12.2111C140.198 11.865 140.816 11.692 141.508 11.692C142.048 11.692 142.542 11.7989 142.989 12.0126C143.442 12.2213 143.832 12.5113 144.157 12.8828L144.257 11.8447H146.18V19.2646C146.18 20.1094 145.995 20.8448 145.623 21.4707C145.257 22.1017 144.737 22.5878 144.066 22.9288C143.394 23.2748 142.608 23.4479 141.707 23.4479C140.455 23.4479 139.32 23.0559 138.302 22.2722L139.188 20.486C139.865 21.1526 140.654 21.486 141.554 21.486C142.038 21.486 142.46 21.3892 142.822 21.1958C143.188 21.0024 143.473 20.7328 143.676 20.3868C143.885 20.0406 143.989 19.6386 143.989 19.1806V18.5546C143.674 18.8702 143.305 19.1195 142.883 19.3027C142.46 19.4809 142 19.5699 141.501 19.5699ZM142.066 17.6157C142.422 17.6157 142.745 17.5394 143.035 17.3867C143.325 17.2289 143.557 17.0126 143.73 16.7378C143.903 16.4579 143.989 16.1424 143.989 15.7913V15.463C143.989 15.1119 143.9 14.7989 143.722 14.5241C143.549 14.2493 143.318 14.0355 143.028 13.8828C142.743 13.7251 142.422 13.6462 142.066 13.6462C141.699 13.6462 141.371 13.7327 141.081 13.9057C140.791 14.0788 140.562 14.3154 140.394 14.6157C140.226 14.9108 140.142 15.2493 140.142 15.6309C140.142 16.0126 140.226 16.3536 140.394 16.6538C140.562 16.9541 140.791 17.1907 141.081 17.3638C141.371 17.5317 141.699 17.6157 142.066 17.6157Z" fill="#333461"/>
</svg>
