<svg width="88" height="88" viewBox="0 0 88 88" fill="none" xmlns="http://www.w3.org/2000/svg">
<path d="M35.5378 56.2501C34.6637 55.4932 33.6426 54.0583 31.8454 52.3185C30.9223 51.3356 28.3982 49.5168 27.5241 48.7599C26.876 47.954 26.778 47.502 26.8079 46.549C26.7397 45.144 27.8505 43.7199 29.4325 43.3767C30.5625 43.1316 31.8885 43.7905 32.9396 44.2724C33.4896 44.6263 34.3637 45.3832 34.9137 45.7372C35.4637 46.0911 35.5127 46.3171 36.0628 46.671C36.6618 47.251 36.9859 47.654 36.5638 46.799C36.0927 45.718 35.4745 43.9591 34.6303 42.2492C34.1102 40.9422 33.8352 40.7653 33.4131 39.9103C32.942 38.8294 32.5689 38.2004 32.0978 37.1194C31.7247 36.4905 31.1066 34.7315 30.6845 33.8766C30.2134 32.7956 29.7722 30.7617 30.48 29.6616C31.0109 28.8365 32.3179 28.3164 33.3199 28.5723C34.5969 29.0052 35.6181 30.4401 35.9911 31.069C36.6882 32.101 37.4834 33.5849 38.1016 35.3438C39.0438 37.5057 40.4571 40.7486 40.6042 41.4266C40.4081 40.5226 39.8389 38.9897 39.8688 38.0367C39.9478 37.3097 40.2036 36.3076 41.0586 35.8855C41.6875 35.5125 42.3655 35.3654 43.0435 35.2183C43.7705 35.2973 44.5465 35.6022 45.0966 35.9561C46.2947 37.116 46.932 40.0539 46.883 39.828C46.9129 38.8749 46.5207 37.067 46.7766 36.065C46.9045 35.5639 47.7104 34.9159 48.1134 34.5918C48.7423 34.2188 49.6463 34.0227 50.3733 34.1016C50.8253 34.0035 51.8763 34.4854 52.2004 34.8884C52.7994 35.4683 53.5157 37.6793 53.9378 38.5342C53.9868 38.7602 53.9677 37.5812 54.2726 36.8052C54.8824 35.2531 57.9483 34.1148 58.8606 37.2297C59.2037 38.8117 59.1547 38.5857 59.3998 39.7157C59.6449 40.8457 59.792 41.5236 59.9881 42.4276C60.1842 43.3316 60.3994 45.4146 60.3695 46.3676C60.2906 47.0946 59.9558 48.8236 59.4739 49.8747C59.4739 49.8747 57.5763 53.1259 57.6444 54.5309C57.7126 55.9359 57.7126 55.9359 57.9087 56.8398C58.1048 57.7438 58.5759 58.8248 58.5759 58.8248C58.5759 58.8248 56.8169 59.443 55.8639 59.4131C54.911 59.3832 53.4378 58.0463 53.0648 57.4173C52.4657 56.8374 51.7877 56.9845 51.4828 57.7605C51.2269 58.7625 50.4401 60.5896 49.5361 60.7857C48.0032 61.3549 44.7903 61.8152 42.5304 62.3054C42.5304 62.3054 42.4921 59.9474 41.3921 59.2395C40.567 58.7086 39.1919 57.8237 38.3669 57.2928L35.5378 56.2501Z" fill="white"/>
<path d="M35.5378 56.2501C34.6637 55.4932 33.6426 54.0583 31.8454 52.3185C30.9223 51.3356 28.3982 49.5168 27.5241 48.7599C26.876 47.954 26.778 47.502 26.8079 46.549C26.7397 45.144 27.8505 43.7199 29.4325 43.3767C30.5625 43.1316 31.8885 43.7905 32.9396 44.2724C33.4896 44.6263 34.3637 45.3832 34.9137 45.7372C35.4637 46.0911 35.5127 46.3171 36.0628 46.671C36.6618 47.251 36.9859 47.654 36.5638 46.799C36.0927 45.718 35.4745 43.9591 34.6303 42.2492C34.1102 40.9422 33.8352 40.7653 33.4131 39.9103C32.942 38.8294 32.5689 38.2004 32.0978 37.1194C31.7247 36.4905 31.1066 34.7315 30.6845 33.8766C30.2134 32.7956 29.7722 30.7617 30.48 29.6616C31.0109 28.8365 32.3179 28.3164 33.3199 28.5723C34.5969 29.0052 35.6181 30.4401 35.9911 31.069C36.6882 32.101 37.4834 33.5849 38.1016 35.3438C39.0438 37.5057 40.4571 40.7486 40.6042 41.4266C40.4081 40.5226 39.8389 38.9897 39.8688 38.0367C39.9478 37.3096 40.2036 36.3076 41.0586 35.8855C41.6875 35.5125 42.3655 35.3654 43.0435 35.2183C43.7705 35.2973 44.5465 35.6022 45.0966 35.9561C46.2947 37.116 46.932 40.0539 46.883 39.8279C46.9129 38.8749 46.5207 37.067 46.7766 36.065C46.9045 35.5639 47.7104 34.9159 48.1134 34.5918C48.7423 34.2188 49.6463 34.0227 50.3733 34.1016C50.8253 34.0035 51.8763 34.4854 52.2004 34.8884C52.7994 35.4683 53.5157 37.6793 53.9378 38.5342C53.9868 38.7602 53.9677 37.5812 54.2726 36.8052C54.8824 35.2531 57.9483 34.1148 58.8606 37.2297C59.2037 38.8117 59.1547 38.5857 59.3998 39.7157C59.6449 40.8457 59.792 41.5236 59.9881 42.4276C60.1842 43.3316 60.3994 45.4146 60.3695 46.3676C60.2906 47.0946 59.9558 48.8236 59.4739 49.8747C59.4739 49.8747 57.5763 53.1259 57.6444 54.5309C57.7126 55.9359 57.7126 55.9359 57.9087 56.8399C58.1048 57.7438 58.5759 58.8248 58.5759 58.8248C58.5759 58.8248 56.8169 59.443 55.8639 59.4131C54.911 59.3832 53.4378 58.0463 53.0648 57.4173C52.4657 56.8374 51.7877 56.9845 51.4828 57.7605C51.2269 58.7625 50.4401 60.5896 49.5361 60.7857C48.0032 61.3549 44.7903 61.8152 42.5304 62.3054C42.5304 62.3054 42.4921 59.9474 41.3921 59.2395C40.567 58.7086 39.1919 57.8237 38.3669 57.2928L35.5378 56.2501Z" stroke="#151E24" stroke-width="0.75" stroke-linecap="round" stroke-linejoin="round"/>
<path d="M54.4422 52.8595L52.7754 45.1757" stroke="#151E24" stroke-width="0.75" stroke-linecap="round"/>
<path d="M49.9231 53.8399L48.0303 46.2051" stroke="#151E24" stroke-width="0.75" stroke-linecap="round"/>
<path d="M43.7354 47.1366L45.4021 54.8204" stroke="#151E24" stroke-width="0.75" stroke-linecap="round"/>
</svg>
